<?xml version="1.0" standalone="no"?>
<!DOCTYPE svg PUBLIC "-//W3C//DTD SVG 20010904//EN"
 "http://www.w3.org/TR/2001/REC-SVG-20010904/DTD/svg10.dtd">
<svg version="1.0" xmlns="http://www.w3.org/2000/svg"
 width="373.000000pt" height="212.000000pt" viewBox="0 0 373.000000 212.000000"
 preserveAspectRatio="xMidYMid meet">

<g transform="translate(0.000000,212.000000) scale(0.100000,-0.100000)"
fill="#000000" stroke="none">
<path d="M674 1613 c-21 -37 -102 -175 -181 -307 -94 -157 -143 -249 -143
-268 l0 -28 120 0 c66 0 120 -1 120 -2 -1 -16 -42 -305 -49 -343 -11 -59 -8
-65 27 -65 24 0 36 17 121 168 52 92 132 227 178 299 46 73 83 144 83 157 0
24 -2 24 -110 31 -92 6 -110 10 -110 24 0 18 37 319 45 369 6 31 5 32 -29 32
-32 0 -37 -4 -72 -67z"/>
<path d="M1160 1498 c0 -2 -27 -156 -60 -343 -33 -187 -60 -348 -60 -357 0
-17 17 -18 213 -18 210 0 213 0 249 25 21 14 42 33 46 43 5 9 18 68 28 129
l18 113 -28 29 -28 30 34 30 c32 28 35 37 53 141 l18 111 -33 34 -34 35 -208
0 c-114 0 -208 -1 -208 -2z m349 -97 c12 -8 12 -21 1 -85 -11 -64 -18 -81 -42
-101 -27 -23 -37 -25 -140 -25 l-110 0 6 28 c3 15 10 56 16 92 18 109 6 100
138 100 64 0 123 -4 131 -9z m-52 -324 c19 -17 19 -21 6 -100 -9 -51 -20 -87
-30 -94 -11 -9 -57 -13 -140 -13 l-123 0 0 24 c0 28 29 187 37 199 3 5 56 7
118 5 91 -2 117 -6 132 -21z"/>
<path d="M1845 1481 c-61 -37 -63 -44 -115 -337 -28 -154 -50 -282 -50 -286 0
-4 14 -23 31 -43 l31 -35 217 0 c196 0 219 2 248 20 18 10 39 29 47 42 14 22
106 516 106 572 0 17 -11 38 -29 57 l-29 29 -214 0 c-190 0 -216 -2 -243 -19z
m392 -79 c13 -8 -69 -495 -88 -518 -16 -20 -337 -20 -345 -1 -4 11 61 405 81
494 3 12 13 24 23 26 29 8 316 7 329 -1z"/>
<path d="M2521 1448 c-25 -126 -111 -627 -111 -646 0 -22 1 -22 225 -22 242 0
232 -3 237 55 l3 30 -173 3 c-159 2 -173 4 -168 20 14 48 105 595 100 603 -3
5 -27 9 -54 9 l-49 0 -10 -52z"/>
<path d="M2926 1484 c-3 -9 -6 -29 -6 -45 l0 -29 105 0 c86 0 105 -3 105 -15
0 -8 -22 -142 -50 -297 -27 -155 -50 -290 -50 -300 0 -15 9 -18 55 -18 30 0
55 4 55 10 0 14 100 582 106 603 5 15 19 17 114 17 103 0 108 1 114 23 3 12 6
32 6 45 l0 22 -274 0 c-240 0 -275 -2 -280 -16z"/>
</g>
</svg>
